M48
; DRILL file {KiCad (5.1.10)-1} date 05/08/25 20:30:23
; FORMAT={-:-/ absolute / metric / decimal}
; #@! TF.CreationDate,2025-05-08T20:30:23+09:00
; #@! TF.GenerationSoftware,Kicad,Pcbnew,(5.1.10)-1
; #@! TF.FileFunction,Plated,1,2,PTH
FMAT,2
METRIC
T1C0.610
T2C0.762
T3C0.950
T4C1.000
T5C1.100
T6C1.900
%
G90
G05
T1
X138.43Y-68.58
X138.43Y-71.12
X138.43Y-73.66
T2
X105.39Y-99.57
X111.09Y-99.57
X115.55Y-99.57
X121.25Y-99.57
X125.71Y-99.57
X131.41Y-99.57
T3
X105.41Y-53.46
X105.41Y-55.96
X105.41Y-58.46
X105.41Y-60.96
X142.24Y-83.82
X142.24Y-86.32
X142.24Y-88.82
X142.24Y-91.32
T4
X105.03Y-34.45
X105.99Y-96.52
X105.99Y-102.62
X109.22Y-121.92
X110.49Y-96.52
X110.49Y-102.62
X111.72Y-121.92
X116.03Y-34.45
X116.15Y-96.52
X116.15Y-102.62
X120.65Y-96.52
X120.65Y-102.62
X120.65Y-121.92
X121.92Y-39.41
X121.92Y-41.91
X123.15Y-121.92
X126.31Y-96.52
X126.31Y-102.62
X129.54Y-39.41
X129.54Y-41.91
X130.81Y-96.52
X130.81Y-102.62
X133.35Y-121.92
X135.85Y-121.92
X136.78Y-34.45
X147.78Y-34.45
T5
X110.49Y-113.03
X112.78Y-113.03
X115.07Y-113.03
X120.65Y-113.03
X122.94Y-113.03
X125.23Y-113.03
X130.81Y-113.03
X133.1Y-113.03
X135.39Y-113.03
T6
X108.03Y-44.45
X113.03Y-44.45
X139.78Y-44.45
X144.78Y-44.45
T0
M30
